<svg xmlns="http://www.w3.org/2000/svg" viewBox="0 0 243.56 243.57"><defs><style>.cls-1{font-size:26.3px;font-family:CormorantGaramond-Medium, Cormorant Garamond;font-weight:500;}.cls-1,.cls-2{fill:#7c7c7c;}.cls-2{font-size:26.2px;font-family:CormorantGaramond-SemiBold, Cormorant Garamond;font-weight:600;}</style></defs><g id="Livello_2" data-name="Livello 2"><g id="OBJECTS"><text class="cls-1" transform="matrix(1, 0.04, -0.04, 1, 118.41, 21.14)">B</text><text class="cls-1" transform="matrix(0.98, 0.21, -0.21, 0.98, 132.63, 21.42)">O</text><text class="cls-1" transform="translate(151.64 25.33) rotate(22.95)">O</text><text class="cls-1" transform="translate(169.49 32.96) rotate(33.16)">K</text><text class="cls-1" transform="translate(183.29 42.32) rotate(39.52)"> </text><text class="cls-1" transform="matrix(0.69, 0.72, -0.72, 0.69, 187.94, 45.61)">N</text><text class="cls-1" transform="matrix(0.54, 0.84, -0.84, 0.54, 200.73, 58.88)">O</text><text class="cls-1" transform="translate(211.23 74.45) rotate(69.02)">W</text><text class="cls-1" transform="translate(219.16 96.86) rotate(77.45)"> </text><text class="cls-1" transform="matrix(0.15, 0.99, -0.99, 0.15, 220.48, 102.56)">-</text><text class="cls-1" transform="translate(221.66 110.67) rotate(85.47)"> </text><text class="cls-1" transform="matrix(0.02, 1, -1, 0.02, 222.14, 116.56)"> </text><text class="cls-1" transform="translate(222.49 122.31) rotate(94.46)">B</text><text class="cls-1" transform="translate(221.66 136.51) rotate(104.07)">O</text><text class="cls-1" transform="matrix(-0.43, 0.9, -0.9, -0.43, 217.01, 155.35)">O</text><text class="cls-1" transform="matrix(-0.58, 0.82, -0.82, -0.58, 208.67, 172.92)">K</text><text class="cls-1" transform="matrix(-0.67, 0.75, -0.75, -0.67, 198.81, 186.32)"> </text><text class="cls-1" transform="translate(195.32 190.86) rotate(138.63)">N</text><text class="cls-1" transform="translate(181.59 203.11) rotate(149.34)">O</text><text class="cls-1" transform="translate(165.62 213) rotate(161.26)">W</text><text class="cls-1" transform="translate(142.92 220.04) rotate(169.68)"> </text><text class="cls-1" transform="translate(137.17 221.14) rotate(173.69)">-</text><text class="cls-1" transform="matrix(-1, 0.04, -0.04, -1, 129.01, 222.01)"> </text><text class="cls-1" transform="translate(123.28 222.48) rotate(-176.67)">B</text><text class="cls-1" transform="translate(109.04 221.93) rotate(-167.07)">O</text><text class="cls-1" transform="translate(90.13 217.66) rotate(-155.97)">O</text><text class="cls-1" transform="translate(72.4 209.67) rotate(-145.74)">K</text><text class="cls-1" transform="matrix(-0.76, -0.65, 0.65, -0.76, 58.8, 200.07)"> </text><text class="cls-1" transform="translate(54.21 196.69) rotate(-132.51)">N</text><text class="cls-1" transform="translate(41.67 183.18) rotate(-121.79)">O</text><text class="cls-1" transform="matrix(-0.34, -0.94, 0.94, -0.34, 31.47, 167.42)">W</text><text class="cls-1" transform="matrix(-0.2, -0.98, 0.98, -0.2, 23.98, 144.89)"> </text><text class="cls-1" transform="matrix(-0.13, -0.99, 0.99, -0.13, 22.76, 139.14)">-</text><text class="cls-1" transform="translate(21.73 130.99) rotate(-93.45)"> </text><text class="cls-1" transform="translate(21.15 125.27) rotate(-87.79)">B</text><text class="cls-1" transform="translate(21.42 111.04) rotate(-78.22)">O</text><text class="cls-1" transform="translate(25.3 92.04) rotate(-67.12)">O</text><text class="cls-1" transform="matrix(0.55, -0.84, 0.84, 0.55, 32.93, 74.16)">K</text><text class="cls-1" transform="translate(42.26 60.36) rotate(-50.53)"> </text><text class="cls-1" transform="matrix(0.72, -0.69, 0.69, 0.72, 45.54, 55.72)">N</text><text class="cls-1" transform="matrix(0.84, -0.54, 0.54, 0.84, 58.81, 42.91)">O</text><text class="cls-1" transform="translate(74.37 32.39) rotate(-21.04)">W</text><text class="cls-1" transform="translate(96.75 24.45) rotate(-12.62)"> </text><text class="cls-1" transform="matrix(0.99, -0.15, 0.15, 0.99, 102.45, 23.12)">-</text><text class="cls-2" transform="translate(110.57 21.92) rotate(-4.6)"> </text></g></g></svg>